<svg xmlns="http://www.w3.org/2000/svg" xmlns:xlink="http://www.w3.org/1999/xlink" width="123" height="25" viewBox="0 0 123 25">
  <defs>
    <clipPath id="clip-path">
      <rect id="Rectangle_83" data-name="Rectangle 83" width="123" height="25" transform="translate(0 -0.135)"/>
    </clipPath>
    <clipPath id="clip-path-2">
      <path id="Path_22" data-name="Path 22" d="M1326.473,115.8l1.151,1.183a5.045,5.045,0,0,1,4.083-1.876c1.557,0,3.134.826,3.134,2.723,0,2.568-2.933,5.048-8.349,9.266v1.475h10.333v-1.652h-7.378c4.2-3.283,7.312-6.051,7.312-9.088s-2.549-4.377-5.054-4.377a6.547,6.547,0,0,0-5.234,2.345" transform="translate(-1326.47 -113.45)" fill="#020a19"/>
    </clipPath>
    <clipPath id="clip-path-3">
      <path id="Path_29" data-name="Path 29" d="M1493.965,125.643l-2.136.007q0,1.518,0,3.036l-1.627.005q0-1.523,0-3.046h-7.054q0-.826-.006-1.652l6.909-10.4h1.781q-.005,2.556-.005,5.114,0,2.646.005,5.289h2.136q0,.367,0,.738c0,.307,0,.611,0,.914Zm-3.761-1.651q0-3.731-.006-7.463-2.544,3.731-5.088,7.463h5.094Z" transform="translate(-1483.14 -113.59)" fill="#020a19"/>
    </clipPath>
  </defs>
  <g id="Logo" transform="translate(0 0.135)" clip-path="url(#clip-path)">
    <g id="HexCon24_-_Logo_-_White_1_" data-name="HexCon24 - Logo - White (1)" transform="translate(0.479 0.862)">
      <path id="HexCon" d="M18.869,17.006v7.3a1.726,1.726,0,0,1-1.791,1.654h-.04A1.731,1.731,0,0,1,15.248,24.3V17.414a3.593,3.593,0,0,0-1.153-2.643,3.52,3.52,0,0,0-2.8-.856,3.433,3.433,0,0,0-1.981,1.1,4.309,4.309,0,0,0-.808,1.641v2.2a3.177,3.177,0,0,1,0,.337v4.9a1.873,1.873,0,0,1-3.745,0h0V3.972A1.866,1.866,0,0,1,6.632,2.12h0A1.865,1.865,0,0,1,8.5,3.972V11a8.479,8.479,0,0,1,1.932-.762,6.605,6.605,0,0,1,2.462-.1h0A7.074,7.074,0,0,1,18.866,17m67.042,1.036a8.913,8.913,0,0,1-1.891,5.242,8.408,8.408,0,0,1-5.7,2.671h-.031a8.137,8.137,0,0,1-1.036-.048,8.347,8.347,0,0,1-5.585-2.672,7.844,7.844,0,0,1-1.882-5.242,8.11,8.11,0,0,1,7.473-7.933,6.99,6.99,0,0,1,1.262.039,7.854,7.854,0,0,1,7.4,7.945m-3.948.079h0v-.005a4.1,4.1,0,0,0-4.01-4.2h-.075a4.123,4.123,0,1,0,4.082,4.2m-46.3,1.147H24.188a4.61,4.61,0,0,0,1.626,2.144,4.737,4.737,0,0,0,2.984.86,4.1,4.1,0,0,0,2.029-.527,3.933,3.933,0,0,0,.916-.721,2.309,2.309,0,0,1,1.783-.381,1.913,1.913,0,0,1,1.024.6,2.014,2.014,0,0,1,.195,2.089,7.765,7.765,0,0,1-2.808,2,8.2,8.2,0,0,1-2.313.575,9.193,9.193,0,0,1-2.462-.049,8.046,8.046,0,0,1-4.975-2.718,7.7,7.7,0,0,1-1.682-5.3,8.192,8.192,0,0,1,2.513-5.5,8.076,8.076,0,0,1,3.042-1.716,8.234,8.234,0,0,1,2.7-.381A7.962,7.962,0,0,1,33.1,11.811a7.806,7.806,0,0,1,2.559,7.461m-3.843-3.3a3.98,3.98,0,0,0-3.457-1.96,4.738,4.738,0,0,0-3.689,1.96Zm36.074,5.26-.167-.108a1.971,1.971,0,0,0-2.25.064,4.166,4.166,0,0,1-5.809-.68,4.065,4.065,0,0,1,.644-5.712l.044-.034A4.17,4.17,0,0,1,63.9,14a4.247,4.247,0,0,1,1.286.539,1.947,1.947,0,0,0,2.246-.093l.059-.046a1.906,1.906,0,0,0,.336-2.675h0l-.018-.023a1.945,1.945,0,0,0-.486-.432,8,8,0,0,0-2.118-.907,7.091,7.091,0,0,0-1.23-.281,8.147,8.147,0,0,0-8.888,6.342,7.822,7.822,0,0,0,.81,5.506,8.3,8.3,0,0,0,4.952,3.7,8.158,8.158,0,0,0,1,.249h.013l.019,0A8.434,8.434,0,0,0,68,24.356c.015-.01.034-.025.054-.043a1.911,1.911,0,0,0,.274-2.686l-.019-.023a1.969,1.969,0,0,0-.422-.373M38.14,13.817c1.21,1.19,2.433,2.379,3.645,3.569.941-.994,1.9-1.978,2.846-2.963-1.2-1.151-2.4-2.313-3.606-3.461a2.057,2.057,0,0,0-2.885-.084,2.006,2.006,0,0,0-.1,2.834h0l.019.02c.028.029.056.057.085.084m14.423-3.2a1.98,1.98,0,0,0-2.779.06L38.2,22.661l-.014.015a1.919,1.919,0,0,0,.051,2.714h0l.021.019.01.01a1.979,1.979,0,0,0,2.779-.066l4.272-4.426L49.635,25.2a2.057,2.057,0,0,0,2.885-.085,2.007,2.007,0,0,0,0-2.771l-4.377-4.327,4.477-4.639a1.931,1.931,0,0,0-.039-2.731l-.021-.019m41.746-.339a6.443,6.443,0,0,0-3.2.871,1.866,1.866,0,0,0-1.588-.869,1.808,1.808,0,0,0-1.837,1.776V24.138a1.807,1.807,0,0,0,1.8,1.817h.039a1.877,1.877,0,0,0,1.828-1.444.787.787,0,0,0,.075-.369V16.835a2.86,2.86,0,0,1,2.828-2.89h.062a2.955,2.955,0,0,1,3.012,2.89v7.3a1.85,1.85,0,0,0,1.836,1.816,1.812,1.812,0,0,0,1.8-1.816v-7.3a6.612,6.612,0,0,0-6.653-6.555" transform="translate(-4.76 -2.12)" fill="#020a19"/>
      <g id="_2" data-name="2" transform="translate(98.614 8.306)">
        <path id="Path_18" data-name="Path 18" d="M1326.473,115.8l1.151,1.183a5.045,5.045,0,0,1,4.083-1.876c1.557,0,3.134.826,3.134,2.723,0,2.568-2.933,5.048-8.349,9.266v1.475h10.333v-1.652h-7.378c4.2-3.283,7.312-6.051,7.312-9.088s-2.549-4.377-5.054-4.377a6.547,6.547,0,0,0-5.234,2.345" transform="translate(-1326.47 -113.45)" fill="#020a19"/>
        <g id="Group_92" data-name="Group 92" clip-path="url(#clip-path-2)">
          <g id="Group_91" data-name="Group 91" transform="translate(-5.009 -1.621)">
            <path id="Path_19" data-name="Path 19" d="M1322.848,94.777l-4.913,1.929-9.142.848-.423-5.825Z" transform="translate(-1304.712 -91.73)" fill="#020a19"/>
            <path id="Path_20" data-name="Path 20" d="M1274.215,145.311l2.1,3.678-8.629,7.408-8.35.471,13.227-10.581,1.651-.977" transform="translate(-1259.34 -141.312)" fill="#020a19"/>
            <path id="Path_21" data-name="Path 21" d="M1311.294,260.682l2.558,4.977-16.022-.366,3.472-5.912q1,1.287,2.006,2.576l7.987-1.274" transform="translate(-1294.958 -246.871)" fill="#020a19"/>
          </g>
          <circle id="Ellipse_1" data-name="Ellipse 1" cx="0.854" cy="0.854" r="0.854" transform="translate(1.815 11.771)" fill="#020a19"/>
          <circle id="Ellipse_2" data-name="Ellipse 2" cx="0.951" cy="0.951" r="0.951" transform="translate(8.068 1.938)" fill="#020a19"/>
        </g>
      </g>
      <g id="Group_94" data-name="Group 94" transform="translate(110.303 8.317)">
        <path id="Path_23" data-name="Path 23" d="M1493.965,125.643l-2.136.007q0,1.518,0,3.036l-1.627.005q0-1.523,0-3.046h-7.054q0-.826-.006-1.652l6.909-10.4h1.781q-.005,2.556-.005,5.114,0,2.646.005,5.289h2.136q0,.367,0,.738c0,.307,0,.611,0,.914Zm-3.761-1.651q0-3.731-.006-7.463-2.544,3.731-5.088,7.463h5.094Z" transform="translate(-1483.14 -113.59)" fill="#020a19"/>
        <g id="Group_93" data-name="Group 93" clip-path="url(#clip-path-3)">
          <path id="Path_24" data-name="Path 24" d="M1526.711,213.8c.113.5.213,1.037.3,1.6a21.278,21.278,0,0,1,.2,3.836h-15.193a5.564,5.564,0,0,1-.66-3.149,5.453,5.453,0,0,1,.872-2.5c3.133-2.461,4.82-2.561,5.793-2.04,1.344.72,1.389,2.491,2.871,3.31.7.388,1.857.538,3.8-.708l2.019-.349Z" transform="translate(-1509.231 -204.007)" fill="#020a19"/>
          <path id="Path_25" data-name="Path 25" d="M1457.558,154.9l-.381,1.848a19.756,19.756,0,0,0-2.022.962,3.926,3.926,0,0,0-.609.391c-.4.321-.788.625-.8,1.031-.011.566.711.953.756.976l-5.545.042q6.056-10.085,8.268-9.3.666.235.983,1.455l-.655,2.6Z" transform="translate(-1451.51 -148.019)" fill="#020a19"/>
          <path id="Path_26" data-name="Path 26" d="M1500.54,83.662c-1.167,1.261-1.957,1.421-2.466,1.329,0,0-.7-.036-3.178-2,.094.644.87,6.14-.381,7.09a1.351,1.351,0,0,1-.988.329c-.092-.017-.469-.1-.865-.781a5.936,5.936,0,0,1-.5-3.526l-.272.351-.131.169.131-.169.272-.351a3.3,3.3,0,0,0-1.743-.957l.893-1.733-5.328-3.954,14.56,4.2Z" transform="translate(-1485.768 -82.007)" fill="#020a19"/>
          <path id="Path_27" data-name="Path 27" d="M1577.548,208.572a.946.946,0,0,1-.964.955.993.993,0,0,1-.975-.983.946.946,0,0,1,.965-.955.993.993,0,0,1,.974.983Z" transform="translate(-1568.71 -200.575)" fill="#020a19"/>
          <path id="Path_28" data-name="Path 28" d="M1512,251.8a.977.977,0,1,1-.972-.981A.976.976,0,0,1,1512,251.8Z" transform="translate(-1508.042 -240.581)" fill="#020a19"/>
          <circle id="Ellipse_3" data-name="Ellipse 3" cx="0.95" cy="0.95" r="0.95" transform="translate(4.517 2.801)" fill="#020a19"/>
        </g>
      </g>
    </g>
  </g>
</svg>