<svg xmlns="http://www.w3.org/2000/svg" width="111.888" height="25.444" viewBox="0 0 111.888 25.444"><defs><style>.a{fill:#fff;}</style></defs><path class="a" d="M290.531-208.4l-.322,3.867H288.63a3.79,3.79,0,0,0-3.832,3.958v8.734h-4.469V-208.4h4.233l.1,2.067a4.819,4.819,0,0,1,4.359-2.067Zm-30.984,16.56h-4.473V-200.6c0-1.833-.158-4.141-2.737-4.141-2.483,0-3.473,1.792-3.473,3.879v9.016h-4.472V-208.4h4.146l.095,2.117a5.614,5.614,0,0,1,4.985-2.521c4.507,0,5.929,3.218,5.929,6.566Zm-17.105-3.868-.313,3.768a11.622,11.622,0,0,1-3.177.391c-4.215,0-5.437-1.933-5.437-5.817v-15.7h4.473v4.67h4.451l-.309,3.867h-4.141v6.83c0,1.559.428,2.4,2.026,2.4a7.338,7.338,0,0,0,2.428-.406m-10.4-12.691-.346,3.867h-1.215a3.739,3.739,0,0,0-3.768,3.958v8.734h-4.473V-208.4h4.235l.088,2.067a4.835,4.835,0,0,1,4.366-2.067ZM202.06-193.677a18.976,18.976,0,0,1-10.066,2.443c-7.42-.227-12.773-4.834-12.773-12.617,0-7.748,5.4-12.7,12.777-12.816a13.858,13.858,0,0,1,9.695,3.2l-3.148,3.185a9.749,9.749,0,0,0-6.841-2.056c-4.64.216-7.435,3.588-7.5,8.223-.061,5.022,3.019,8.484,7.834,8.61a11.75,11.75,0,0,0,5.293-.878v-5.134h-5l.338-4.211h9.394Zm76.271-4.871H266.068a4.051,4.051,0,0,0,4.084,3.447,5.5,5.5,0,0,0,4.613-2.045l2.918,2.225a8.942,8.942,0,0,1-7.4,3.484,8.363,8.363,0,0,1-8.723-8.685,8.309,8.309,0,0,1,8.536-8.684c5.311,0,8.231,3.218,8.231,8.929Zm-4.481-3.462a3.478,3.478,0,0,0-3.863-3.33,3.934,3.934,0,0,0-3.919,3.33Zm-54.422-.676v10.844h-3.943l-.1-1.633a6.452,6.452,0,0,1-5.2,2.038c-3.045,0-5.923-1.5-5.983-5-.091-5.5,6.187-5.888,10.129-5.888h.788v-.217c0-1.818-1.2-2.8-3.468-2.8a6.53,6.53,0,0,0-4.418,1.765l-2.581-2.622a11.22,11.22,0,0,1,7.378-2.608c5.13,0,7.391,2.371,7.391,6.12m-4.3,3.622H214.5c-2.118,0-5.837.109-5.823,2.323.02,3.119,6.445,2.128,6.445-1.634Zm71.917,5.3a1.8,1.8,0,0,1,1.815-1.848,1.8,1.8,0,0,1,1.8,1.848,1.8,1.8,0,0,1-1.8,1.864,1.8,1.8,0,0,1-1.815-1.864m1.815,2.235a2.224,2.224,0,0,0,2.25-2.235,2.22,2.22,0,0,0-2.25-2.22,2.223,2.223,0,0,0-2.262,2.22,2.227,2.227,0,0,0,2.262,2.235m-.472-2.056h.449l.676,1.113h.437l-.73-1.131a.668.668,0,0,0,.666-.708c0-.506-.3-.731-.908-.731H288v2.57h.388Zm0-.331v-.794h.53c.272,0,.56.059.56.377,0,.394-.295.417-.624.417Z" transform="translate(-179.22 216.669)"/></svg>