<?xml version="1.0" encoding="utf-8"?>
<!-- Generator: Adobe Illustrator 26.1.0, SVG Export Plug-In . SVG Version: 6.00 Build 0)  -->
<svg version="1.1" id="Layer_1" xmlns="http://www.w3.org/2000/svg" xmlns:xlink="http://www.w3.org/1999/xlink" x="0px" y="0px"
	 viewBox="0 0 282 40.2" style="enable-background:new 0 0 282 40.2;" xml:space="preserve">
<style type="text/css">
	.st0{fill:#11121A;}
</style>
<g id="Mitsogo_logo">
	<g>
		<path class="st0" d="M171.4,30.1h5.5c0.1,0,0.1-0.1,0.1-0.1V7.7h-5.7L171.4,30.1L171.4,30.1z"/>
		<path class="st0" d="M205.1,16.8l-3.2-0.8c-0.9-0.2-1.5-0.5-2-0.8s-0.7-0.7-0.7-1.2s0.3-0.9,0.9-1.3c0.6-0.3,1.3-0.5,2.1-0.5
			s1.5,0.2,2.3,0.6s1.4,1,1.8,1.8l4.8-2c-0.7-1.7-1.9-3-3.5-3.7c-1.6-0.8-3.4-1.2-5.3-1.2c-1.2,0-2.3,0.1-3.4,0.4
			c-1,0.3-1.9,0.7-2.7,1.3c-0.8,0.6-1.4,1.2-1.8,2c-0.4,0.8-0.7,1.7-0.7,2.7c0,0.9,0.2,1.7,0.6,2.4c0.4,0.7,0.8,1.3,1.4,1.8
			c0.6,0.5,1.2,0.9,1.9,1.2c0.7,0.3,1.4,0.5,2,0.7l3,0.6c1.2,0.3,2.1,0.6,2.6,1s0.7,0.8,0.7,1.4c0,0.5-0.3,1-0.9,1.3
			c-0.6,0.4-1.4,0.6-2.4,0.6s-1.9-0.3-2.7-0.8s-1.5-1.3-1.9-2.4l-5,2.1c0.3,0.7,0.7,1.5,1.2,2.2s1.2,1.4,2,1.9
			c0.8,0.6,1.7,1,2.8,1.3s2.3,0.5,3.7,0.5c1.3,0,2.6-0.2,3.7-0.6c1.1-0.4,2-0.9,2.8-1.5s1.4-1.4,1.8-2.2c0.4-0.8,0.6-1.7,0.6-2.6
			c0-1.5-0.5-2.9-1.6-4C208.9,18.1,207.3,17.3,205.1,16.8z"/>
		<path class="st0" d="M231.7,10.9c-1-1-2.2-1.8-3.5-2.3c-1.4-0.6-2.8-0.8-4.5-0.8c-1.6,0-3.1,0.3-4.5,0.8c-1.4,0.6-2.5,1.3-3.5,2.3
			s-1.8,2.2-2.3,3.5c-0.6,1.4-0.8,2.9-0.8,4.5s0.3,3.1,0.8,4.5c0.6,1.4,1.3,2.5,2.3,3.5s2.2,1.8,3.5,2.3c1.4,0.6,2.8,0.8,4.5,0.8
			c1.6,0,3.1-0.3,4.5-0.8c1.4-0.6,2.5-1.3,3.5-2.3s1.8-2.2,2.3-3.5c0.6-1.4,0.8-2.9,0.8-4.5s-0.3-3.1-0.8-4.5
			C233.4,13.1,232.7,11.9,231.7,10.9z M228.8,21.5c-0.3,0.7-0.7,1.4-1.2,1.9s-1.1,0.9-1.8,1.2c-0.7,0.3-1.4,0.4-2.1,0.4
			c-0.7,0-1.4-0.1-2.1-0.4c-0.7-0.3-1.2-0.7-1.8-1.2c-0.5-0.5-0.9-1.1-1.2-1.9c-0.3-0.7-0.4-1.6-0.4-2.5s0.1-1.8,0.4-2.5
			c0.3-0.7,0.7-1.4,1.2-1.9s1.1-0.9,1.8-1.2c0.7-0.3,1.4-0.4,2.1-0.4c0.7,0,1.4,0.1,2.1,0.4c0.7,0.3,1.3,0.7,1.8,1.2
			s0.9,1.1,1.2,1.9c0.3,0.7,0.4,1.6,0.4,2.5C229.2,19.9,229.1,20.7,228.8,21.5z"/>
		<path class="st0" d="M281.2,14.4c-0.6-1.4-1.3-2.5-2.3-3.5s-2.2-1.8-3.5-2.3c-1.4-0.6-2.8-0.8-4.5-0.8c-1.6,0-3.1,0.3-4.5,0.8
			c-1.4,0.6-2.5,1.3-3.5,2.3s-1.8,2.2-2.3,3.5c-0.6,1.4-0.8,2.9-0.8,4.5s0.3,3.1,0.8,4.5c0.6,1.4,1.3,2.5,2.3,3.5s2.2,1.8,3.5,2.3
			c1.4,0.6,2.8,0.8,4.5,0.8c1.6,0,3.1-0.3,4.5-0.8c1.4-0.6,2.5-1.3,3.5-2.3s1.8-2.2,2.3-3.5c0.6-1.4,0.8-2.9,0.8-4.5
			C282.1,17.3,281.8,15.8,281.2,14.4z M276,21.5c-0.3,0.7-0.7,1.4-1.2,1.9s-1.1,0.9-1.8,1.2c-0.7,0.3-1.4,0.4-2.1,0.4
			s-1.4-0.1-2.1-0.4s-1.2-0.7-1.8-1.2c-0.5-0.5-0.9-1.1-1.2-1.9c-0.3-0.7-0.4-1.6-0.4-2.5s0.1-1.8,0.4-2.5s0.7-1.4,1.2-1.9
			s1.1-0.9,1.8-1.2c0.7-0.3,1.4-0.4,2.1-0.4s1.4,0.1,2.1,0.4s1.3,0.7,1.8,1.2s0.9,1.1,1.2,1.9c0.3,0.7,0.4,1.6,0.4,2.5
			C276.5,19.9,276.3,20.7,276,21.5z"/>
		<path class="st0" d="M164.7,9.2c-3.1-2.4-7.4-1.8-10.1-0.2c-1,0.6-1.7,1.3-2.1,1.8c-0.5-0.6-1.4-1.5-2.8-2.3c-2-1-3.8-1-4.2-1
			c-2.4,0.1-4.1,1.2-4.7,1.7c0-0.4,0-0.8,0-1.2c-1.8,0-3.7,0-5.5,0v22h5.8c0-4.4-0.1-8.7-0.1-13.1c0-0.3-0.1-1.9,1.1-3.3
			c0.3-0.4,1.3-1.2,2.8-1.3c1.5-0.1,2.6,0.8,2.9,1.1c1.1,1,1.3,2.3,1.3,2.6v13.8c1.9,0,3.8,0,5.6,0.1c0-4.5,0-9.1,0.1-13.6
			c0-0.4,0.2-1.7,1.3-2.8c0.3-0.3,1.3-1.3,2.8-1.3c1.4,0,2.3,0.8,2.6,1.1c1,1,1.1,2.3,1.1,2.6v13.9c1.7,0,3.5,0,5.2-0.1
			c0-4.7,0-9.5,0-14.2c-0.1-0.6-0.1-1.3-0.2-1.9C167.4,13,166.7,10.8,164.7,9.2z"/>
		<path class="st0" d="M188.1,25.3c-0.6,0-1.2,0-1.7-0.5c-0.6-0.5-0.7-1.2-0.8-1.4c0-0.5,0-1,0-1.6c0-3,0-6,0-8.9c1.9,0,3.9,0,5.8,0
			c0-1.7,0-3.5,0-5.2c-1.9,0-3.9,0-5.8,0c0-2.6,0-5.1,0-7.7c-1.8,0-3.7,0-5.5,0c0,7.9,0,15.8,0,23.7c0,0.6,0.3,3.3,2.5,5
			c1.7,1.3,3.6,1.4,4.7,1.4c3,0.1,5.2-1.2,6.2-1.9c-0.7-1.3-1.5-2.6-2.2-3.9C190.6,24.8,189.5,25.3,188.1,25.3z"/>
		<circle class="st0" cx="174.2" cy="2.8" r="2.8"/>
		<path class="st0" d="M255.3,10.9c-1-1-2.2-1.8-3.5-2.3c-1.4-0.6-2.8-0.8-4.5-0.8c-1.6,0-3.1,0.3-4.5,0.8c-1.4,0.6-2.5,1.3-3.5,2.3
			s-1.8,2.2-2.3,3.5c-0.6,1.4-0.8,2.9-0.8,4.5s0.3,3.1,0.8,4.5c0.6,1.4,1.3,2.5,2.3,3.5s2.2,1.8,3.5,2.3c1.4,0.6,2.8,0.8,4.5,0.8
			c1.6,0,3.1-0.3,4.5-0.8c0.3-0.1,0.6-0.3,0.9-0.4v1.9c0,0.4-0.1,0.8-0.3,1.3c-0.1,0.3-0.3,0.8-0.6,1.3c-1.3,1.9-3.8,2.2-4.6,2.2
			c-0.2,0-0.3,0-0.4,0c-2.1,0-3.6-0.9-4.4-1.3c-0.7-0.4-1.3-0.9-1.6-1.2c-1.1,1.4-2.1,2.7-3.2,4.1c1.1,0.9,4.3,3.1,8.9,3.1
			c1.5,0,6-0.1,9.2-3.7c0.4-0.4,0.7-0.9,1-1.3c0.5-0.7,0.9-1.7,1.3-2.8c0.4-1.3,0.5-2.5,0.5-3.3c0-3.2,0-6.3,0-9.5
			c0-0.3,0-0.5,0-0.8c0-1.6-0.3-3.1-0.8-4.5C257.1,13.1,256.3,11.9,255.3,10.9z M252.4,21.5c-0.3,0.7-0.7,1.4-1.2,1.9
			s-1.1,0.9-1.8,1.2c-0.7,0.3-1.4,0.4-2.1,0.4c-0.7,0-1.4-0.1-2.1-0.4c-0.7-0.3-1.2-0.7-1.8-1.2c-0.5-0.5-0.9-1.1-1.2-1.9
			c-0.3-0.7-0.4-1.6-0.4-2.5s0.1-1.8,0.4-2.5c0.3-0.7,0.7-1.4,1.2-1.9s1.1-0.9,1.8-1.2c0.7-0.3,1.4-0.4,2.1-0.4
			c0.7,0,1.4,0.1,2.1,0.4c0.7,0.3,1.3,0.7,1.8,1.2s0.9,1.1,1.2,1.9c0.3,0.7,0.4,1.6,0.4,2.5C252.9,19.9,252.7,20.7,252.4,21.5z"/>
	</g>
	<g>
		<path d="M9.1,15.6c0.7,0.5,1.3,1.2,1.7,2.1s0.6,1.9,0.6,3s-0.2,2.1-0.6,3c-0.4,0.9-1,1.5-1.7,2s-1.6,0.7-2.6,0.7
			c-0.8,0-1.5-0.2-2.2-0.5c-0.6-0.3-1.1-0.8-1.5-1.4V31H0.2V18.3c0-1.2-0.1-2.2-0.2-3.1h2.6l0.2,1.9c0.3-0.7,0.8-1.2,1.4-1.6
			c0.7-0.4,1.4-0.6,2.3-0.6C7.5,14.9,8.3,15.1,9.1,15.6z M7.9,23.4c0.5-0.6,0.7-1.5,0.7-2.6c0-1.2-0.2-2.1-0.7-2.7
			c-0.5-0.7-1.2-1-2.1-1S4.1,17.4,3.6,18s-0.7,1.5-0.7,2.7s0.2,2,0.7,2.7c0.5,0.6,1.2,0.9,2.1,0.9C6.7,24.3,7.4,24,7.9,23.4z"/>
		<path d="M15.9,25.7c-0.9-0.5-1.5-1.1-2-2s-0.7-1.9-0.7-3.1s0.2-2.2,0.7-3.1s1.1-1.5,2-2s1.9-0.7,3-0.7s2.1,0.2,2.9,0.7
			c0.9,0.5,1.5,1.1,2,2s0.7,1.9,0.7,3.1s-0.2,2.2-0.7,3.1s-1.1,1.5-2,2s-1.8,0.7-2.9,0.7C17.8,26.4,16.8,26.2,15.9,25.7z M21,23.4
			c0.5-0.6,0.7-1.5,0.7-2.7S21.5,18.6,21,18s-1.2-0.9-2.1-0.9s-1.6,0.3-2.1,0.9s-0.7,1.5-0.7,2.7s0.2,2.1,0.7,2.7s1.2,0.9,2.1,0.9
			C19.8,24.3,20.5,24,21,23.4z"/>
		<path d="M44.4,15.2L40,26.3h-2.4L34.9,19l-2.7,7.3h-2.4l-4.4-11.1h2.8l2.9,7.8l2.9-7.8h2l2.9,7.9l2.9-7.9H44.4z"/>
		<path d="M55.6,20.9h-7.7c0.1,1.2,0.4,2.1,0.9,2.6c0.5,0.6,1.3,0.8,2.4,0.8c1.2,0,2.3-0.4,3.4-1.2l0.8,1.9c-0.5,0.4-1.2,0.8-1.9,1
			c-0.8,0.3-1.6,0.4-2.3,0.4c-1.8,0-3.2-0.5-4.3-1.5c-1-1-1.6-2.4-1.6-4.2c0-1.1,0.2-2.1,0.7-3s1.1-1.6,1.9-2.1
			c0.8-0.5,1.8-0.7,2.8-0.7c1.5,0,2.7,0.5,3.6,1.5c0.9,1,1.3,2.3,1.3,4.1C55.6,20.5,55.6,20.9,55.6,20.9z M48.9,17.5
			c-0.5,0.4-0.8,1.1-0.9,1.9h5.2c-0.1-0.8-0.3-1.5-0.8-1.9c-0.4-0.4-1-0.6-1.7-0.6C50,16.9,49.4,17.1,48.9,17.5z"/>
		<path d="M65,15.1v2.5c-0.5-0.2-1-0.3-1.5-0.3c-0.9,0-1.7,0.3-2.1,0.8c-0.5,0.5-0.7,1.3-0.7,2.2v6H58v-8c0-1.2-0.1-2.2-0.2-3.1h2.6
			l0.2,2c0.3-0.7,0.7-1.3,1.3-1.6c0.6-0.4,1.3-0.6,2-0.6C64.3,14.9,64.7,15,65,15.1z"/>
		<path d="M76.1,20.9h-7.7c0.1,1.2,0.4,2.1,0.9,2.6c0.5,0.6,1.3,0.8,2.4,0.8c1.2,0,2.3-0.4,3.4-1.2l0.8,1.9c-0.5,0.4-1.2,0.8-1.9,1
			c-0.8,0.3-1.6,0.4-2.3,0.4c-1.8,0-3.2-0.5-4.3-1.5c-1-1-1.6-2.4-1.6-4.2c0-1.1,0.2-2.1,0.7-3s1.1-1.6,1.9-2.1s1.8-0.7,2.8-0.7
			c1.5,0,2.7,0.5,3.6,1.5s1.3,2.3,1.3,4.1C76.1,20.5,76.1,20.9,76.1,20.9z M69.4,17.5c-0.5,0.4-0.8,1.1-0.9,1.9h5.2
			c-0.1-0.8-0.3-1.5-0.8-1.9c-0.4-0.4-1-0.6-1.7-0.6C70.4,16.9,69.8,17.1,69.4,17.5z"/>
		<path d="M89,10.1v16.2h-2.7v-1.8c-0.3,0.6-0.8,1.1-1.5,1.4c-0.6,0.3-1.3,0.5-2.2,0.5c-1,0-1.8-0.2-2.6-0.7
			c-0.7-0.5-1.3-1.2-1.7-2.1c-0.4-0.9-0.6-1.9-0.6-3s0.2-2.1,0.6-3s1-1.5,1.7-2s1.6-0.7,2.6-0.7c0.8,0,1.5,0.2,2.1,0.5
			s1.1,0.8,1.4,1.4v-6.7L89,10.1L89,10.1z M85.6,23.3c0.5-0.6,0.8-1.5,0.8-2.7s-0.2-2.1-0.7-2.7S84.5,17,83.6,17s-1.6,0.3-2.1,0.9
			s-0.8,1.5-0.8,2.7s0.3,2.1,0.8,2.7s1.2,1,2.1,1C84.3,24.3,85,24,85.6,23.3z"/>
		<path d="M106.9,15.6c0.7,0.5,1.3,1.1,1.7,2c0.4,0.9,0.6,1.9,0.6,3s-0.2,2.2-0.6,3c-0.4,0.9-1,1.6-1.7,2.1s-1.6,0.7-2.5,0.7
			c-0.8,0-1.6-0.2-2.2-0.5c-0.6-0.4-1.1-0.8-1.4-1.5v1.8h-2.7V10.1h2.7v6.8c0.3-0.6,0.8-1.1,1.5-1.4c0.6-0.3,1.3-0.5,2.2-0.5
			C105.3,14.9,106.2,15.1,106.9,15.6z M105.7,23.3c0.5-0.6,0.7-1.5,0.7-2.7c0-1.1-0.2-2-0.7-2.7c-0.5-0.6-1.2-0.9-2.1-0.9
			s-1.6,0.3-2.1,0.9s-0.7,1.5-0.7,2.7s0.2,2.1,0.7,2.7s1.2,0.9,2.2,0.9C104.5,24.3,105.2,24,105.7,23.3z"/>
		<path d="M122,15.2l-5.2,11.9c-0.6,1.4-1.3,2.4-2.2,3c-0.9,0.6-2,1-3.4,1.3l-0.6-2.2c1-0.2,1.8-0.5,2.3-0.9s0.9-0.9,1.3-1.6
			l0.4-0.8l-4.7-10.7h2.9l3.2,8l3.3-8H122z"/>
	</g>
</g>
</svg>
