<svg xmlns="http://www.w3.org/2000/svg" width="10" height="12" viewBox="0 0 10 12">
  <g id="Icon" transform="translate(-104.662 -213.472)">
    <g id="Path_8123" data-name="Path 8123" transform="translate(-69.006 -1.001)">
      <path id="Path_12382" data-name="Path 12382" d="M181.67,217.819a3.3,3.3,0,0,0-.855-.951,3.312,3.312,0,0,0,.855-.951,3.3,3.3,0,0,0,.855.951A3.3,3.3,0,0,0,181.67,217.819Z" fill="#556575"/>
      <path id="Path_12383" data-name="Path 12383" d="M181.67,214.473a2.969,2.969,0,0,0,1.479,2.2,4.87,4.87,0,0,0,.519.2,4.867,4.867,0,0,0-.519.2,2.969,2.969,0,0,0-1.479,2.2,2.969,2.969,0,0,0-1.479-2.2,4.866,4.866,0,0,0-.519-.2,4.868,4.868,0,0,0,.519-.2A2.969,2.969,0,0,0,181.67,214.473Z" fill="#556575"/>
    </g>
    <g id="Path_12381" data-name="Path 12381" transform="translate(-75.01 1.617)">
      <path id="Path_12384" data-name="Path 12384" d="M183.585,222.072a6,6,0,0,0-2.558-2.908,6,6,0,0,0,2.558-2.907,6,6,0,0,0,2.559,2.907A6,6,0,0,0,183.585,222.072Z" fill="#556575"/>
      <path id="Path_12385" data-name="Path 12385" d="M183.585,217.342a6.479,6.479,0,0,1-1.64,1.822,6.469,6.469,0,0,1,1.64,1.823,6.484,6.484,0,0,1,1.64-1.823,6.494,6.494,0,0,1-1.64-1.822m0-2.869a5.815,5.815,0,0,0,2.9,4.3,9.659,9.659,0,0,0,1.016.386,9.655,9.655,0,0,0-1.016.386,5.815,5.815,0,0,0-2.9,4.3,5.815,5.815,0,0,0-2.9-4.3,9.655,9.655,0,0,0-1.016-.386,9.659,9.659,0,0,0,1.016-.386A5.815,5.815,0,0,0,183.585,214.473Z" fill="#556575"/>
    </g>
  </g>
</svg>
