<svg id="Group_2012" data-name="Group 2012" xmlns="http://www.w3.org/2000/svg" width="149" height="43" viewBox="0 0 149 43">
  <g id="Rectangle_1481" data-name="Rectangle 1481" fill="#fff" stroke="rgba(0,0,0,0.3)" stroke-width="0.3">
    <rect width="149" height="43" rx="4" stroke="none"/>
    <rect x="0.15" y="0.15" width="148.7" height="42.7" rx="3.85" fill="none"/>
  </g>
  <g id="google-workspace" transform="translate(25.765 14.976)">
    <g id="Group_1982" data-name="Group 1982" transform="translate(41.468 0.945)">
      <path id="Path_4141" data-name="Path 4141" d="M63.493,14.23h1.149l-2.283,8.575H61.233L59.39,17.149h-.05L57.5,22.805H56.371L53.99,14.23h1.149l1.808,6.741h.047l1.858-5.595h1.025l1.858,5.595h.047Z" transform="translate(-53.99 -14.23)" fill="#5f6368"/>
      <g id="Group_1981" data-name="Group 1981" transform="translate(10.555)">
        <g id="Group_1980" data-name="Group 1980">
          <path id="Path_4142" data-name="Path 4142" d="M89.72,25.868a3.066,3.066,0,0,1,.854-2.236,2.913,2.913,0,0,1,2.162-.892,2.815,2.815,0,0,1,2.15.892,3.077,3.077,0,0,1,.868,2.236,3.046,3.046,0,0,1-.868,2.236,3.052,3.052,0,0,1-4.313,0,3.066,3.066,0,0,1-.854-2.236m1.1,0a2.134,2.134,0,0,0,.549,1.527,1.892,1.892,0,0,0,2.735,0,2.148,2.148,0,0,0,.549-1.527,2.124,2.124,0,0,0-.549-1.515,1.86,1.86,0,0,0-2.735,0,2.1,2.1,0,0,0-.549,1.515" transform="translate(-89.72 -20.226)" fill="#5f6368"/>
          <path id="Path_4143" data-name="Path 4143" d="M113.889,28.865h-1.1V23h1.052v.954h.05a1.628,1.628,0,0,1,.685-.795,1.9,1.9,0,0,1,1.025-.331,2.076,2.076,0,0,1,.818.148l-.343,1.063a1.7,1.7,0,0,0-.647-.086,1.44,1.44,0,0,0-1.087.5,1.68,1.68,0,0,0-.464,1.173v3.238h.009Z" transform="translate(-105.975 -20.29)" fill="#5f6368"/>
          <path id="Path_4144" data-name="Path 4144" d="M131.936,22.805H130.6l-1.831-2.762-.892.88v1.882H126.77V14.23h1.111v5.276l2.529-2.564h1.418v.047l-2.283,2.272,2.393,3.495Z" transform="translate(-115.826 -14.23)" fill="#5f6368"/>
          <path id="Path_4145" data-name="Path 4145" d="M148.792,27.184a1.579,1.579,0,0,1-.671,1.294,2.644,2.644,0,0,1-1.687.526,2.677,2.677,0,0,1-1.551-.464,2.51,2.51,0,0,1-.954-1.208l.978-.417a1.861,1.861,0,0,0,.623.818,1.484,1.484,0,0,0,.9.292,1.522,1.522,0,0,0,.88-.233.646.646,0,0,0,.354-.538c0-.378-.292-.647-.868-.83l-1-.257c-1.134-.292-1.71-.842-1.71-1.648a1.516,1.516,0,0,1,.647-1.282,3,3,0,0,1,3.078-.121,2.023,2.023,0,0,1,.88.99l-.978.4a1.253,1.253,0,0,0-.549-.585,1.678,1.678,0,0,0-.842-.207,1.465,1.465,0,0,0-.771.219.621.621,0,0,0-.343.526c0,.331.319.573.939.721l.892.233c1.161.287,1.749.874,1.749,1.766" transform="translate(-127.917 -20.233)" fill="#5f6368"/>
          <path id="Path_4146" data-name="Path 4146" d="M165.932,29a2.6,2.6,0,0,1-1.185-.281,2.08,2.08,0,0,1-.818-.733h-.05l.05.818V31.4h-1.1V22.945h1.052v.818h.05a2.08,2.08,0,0,1,.818-.733,2.531,2.531,0,0,1,1.185-.281,2.557,2.557,0,0,1,1.967.9,3.21,3.21,0,0,1,.83,2.21,3.158,3.158,0,0,1-.83,2.21,2.514,2.514,0,0,1-1.97.93m-.183-1.013a1.719,1.719,0,0,0,1.332-.6,2.164,2.164,0,0,0,.538-1.515,2.19,2.19,0,0,0-.538-1.515,1.7,1.7,0,0,0-1.332-.6,1.726,1.726,0,0,0-1.344.6,2.464,2.464,0,0,0,0,3.043,1.782,1.782,0,0,0,1.344.588" transform="translate(-141.234 -20.233)" fill="#5f6368"/>
          <path id="Path_4147" data-name="Path 4147" d="M186.875,22.75a2.764,2.764,0,0,1,1.929.647,2.288,2.288,0,0,1,.709,1.8v3.616h-1.052V27.99h-.05a2.1,2.1,0,0,1-1.82,1,2.4,2.4,0,0,1-1.625-.573,1.819,1.819,0,0,1-.647-1.442A1.778,1.778,0,0,1,185,25.524a2.94,2.94,0,0,1,1.831-.538,3.277,3.277,0,0,1,1.613.354v-.257a1.261,1.261,0,0,0-.452-.978,1.555,1.555,0,0,0-1.063-.4,1.7,1.7,0,0,0-1.465.783l-.966-.611a2.76,2.76,0,0,1,2.375-1.125m-1.415,4.263a.878.878,0,0,0,.366.721,1.324,1.324,0,0,0,.854.292,1.731,1.731,0,0,0,1.235-.514,1.644,1.644,0,0,0,.549-1.208,2.275,2.275,0,0,0-1.442-.4,1.915,1.915,0,0,0-1.122.319.9.9,0,0,0-.44.792" transform="translate(-156.375 -20.233)" fill="#5f6368"/>
          <path id="Path_4148" data-name="Path 4148" d="M207.366,29A2.859,2.859,0,0,1,205.2,28.1a3.2,3.2,0,0,1-.854-2.236,3.066,3.066,0,0,1,.854-2.236,2.913,2.913,0,0,1,2.162-.892,2.681,2.681,0,0,1,1.563.452,2.761,2.761,0,0,1,1,1.235l-1,.417a1.644,1.644,0,0,0-1.637-1.1,1.712,1.712,0,0,0-1.306.611,2.371,2.371,0,0,0,0,3.007,1.795,1.795,0,0,0,3-.487l.978.417a2.6,2.6,0,0,1-1.013,1.235,2.767,2.767,0,0,1-1.589.47" transform="translate(-170.489 -20.226)" fill="#5f6368"/>
          <path id="Path_4149" data-name="Path 4149" d="M227.536,29a2.741,2.741,0,0,1-2.124-.892,3.106,3.106,0,0,1-.842-2.236,3.179,3.179,0,0,1,.818-2.236,2.935,2.935,0,0,1,4.165-.05,3.389,3.389,0,0,1,.771,2.369l-.015.127H225.7a1.911,1.911,0,0,0,.573,1.391,1.857,1.857,0,0,0,2.969-.526l.978.476a2.964,2.964,0,0,1-1.1,1.161,3.172,3.172,0,0,1-1.589.417m-1.758-3.837h3.359a1.466,1.466,0,0,0-.5-1.013,1.709,1.709,0,0,0-1.2-.4,1.6,1.6,0,0,0-1.075.378,1.78,1.78,0,0,0-.585,1.037" transform="translate(-184.736 -20.226)" fill="#5f6368"/>
        </g>
      </g>
    </g>
    <g id="Group_1984" data-name="Group 1984" transform="translate(0 0)">
      <g id="Group_1983" data-name="Group 1983">
        <path id="Path_4150" data-name="Path 4150" d="M-81.445,16.787v-1.32h4.434a4.413,4.413,0,0,1,.074.818,4.373,4.373,0,0,1-1.149,3.1,4.422,4.422,0,0,1-3.382,1.356A4.933,4.933,0,0,1-86.39,15.88a4.917,4.917,0,0,1,4.921-4.85,4.615,4.615,0,0,1,3.323,1.332l-.939.939a3.366,3.366,0,0,0-2.4-.954,3.48,3.48,0,0,0-3.48,3.53,3.482,3.482,0,0,0,3.48,3.53,3.241,3.241,0,0,0,2.443-.966,2.758,2.758,0,0,0,.721-1.648Z" transform="translate(86.39 -11.03)" fill="#5f6368"/>
        <path id="Path_4151" data-name="Path 4151" d="M-46.482,25.868A3.091,3.091,0,0,1-49.622,29a3.082,3.082,0,0,1-3.128-3.128,3.084,3.084,0,0,1,3.14-3.128,3.067,3.067,0,0,1,3.128,3.128m-1.368,0a1.8,1.8,0,0,0-1.758-1.893,1.8,1.8,0,0,0-1.761,1.893,1.809,1.809,0,0,0,1.761,1.893,1.807,1.807,0,0,0,1.758-1.893" transform="translate(62.687 -19.281)" fill="#5f6368"/>
        <path id="Path_4152" data-name="Path 4152" d="M-23.35,25.868A3.091,3.091,0,0,1-26.49,29a3.084,3.084,0,0,1-3.14-3.128,3.084,3.084,0,0,1,3.14-3.128,3.077,3.077,0,0,1,3.14,3.128m-1.368,0a1.8,1.8,0,0,0-1.758-1.893,1.8,1.8,0,0,0-1.758,1.893,1.809,1.809,0,0,0,1.758,1.893,1.807,1.807,0,0,0,1.758-1.893" transform="translate(46.397 -19.281)" fill="#5f6368"/>
        <path id="Path_4153" data-name="Path 4153" d="M-.435,22.877v5.607c0,2.31-1.356,3.249-2.969,3.249a2.978,2.978,0,0,1-2.774-1.843l1.2-.5A1.712,1.712,0,0,0-3.407,30.5a1.6,1.6,0,0,0,1.672-1.831v-.452h-.044a2.135,2.135,0,0,1-1.648.709A3.089,3.089,0,0,1-6.42,25.81a3.113,3.113,0,0,1,2.992-3.14,2.19,2.19,0,0,1,1.648.7h.047v-.514H-.438v.024Zm-1.211,2.954a1.761,1.761,0,0,0-1.672-1.905,1.808,1.808,0,0,0-1.734,1.905,1.794,1.794,0,0,0,1.734,1.882,1.747,1.747,0,0,0,1.672-1.882" transform="translate(30.043 -19.232)" fill="#5f6368"/>
        <rect id="Rectangle_1476" data-name="Rectangle 1476" width="1.368" height="9.148" transform="translate(30.559 0.369)" fill="#5f6368"/>
        <path id="Path_4154" data-name="Path 4154" d="M28.571,26.868l1.063.709a3.094,3.094,0,0,1-2.6,1.379,3.058,3.058,0,0,1-3.1-3.128A2.969,2.969,0,0,1,26.875,22.7a2.9,2.9,0,0,1,2.676,1.991l.148.354-4.183,1.725a1.6,1.6,0,0,0,1.515.951,1.747,1.747,0,0,0,1.539-.854M25.3,25.743l2.8-1.161a1.211,1.211,0,0,0-1.161-.659,1.7,1.7,0,0,0-1.636,1.82" transform="translate(8.658 -19.253)" fill="#5f6368"/>
      </g>
    </g>
  </g>
</svg>
