<svg xmlns="http://www.w3.org/2000/svg" width="104.082" height="21.487" viewBox="0 0 104.082 21.487">
  <g id="logo" opacity="1">
    <path id="Path_1" data-name="Path 1" d="M7.223,36.306a5.928,5.928,0,0,0-2.186.084,5.9,5.9,0,0,0-1.714.633V30.754a1.651,1.651,0,0,0-1.661-1.64A1.651,1.651,0,0,0,0,30.754V48.582a1.651,1.651,0,0,0,1.661,1.64,1.651,1.651,0,0,0,1.661-1.64V42.1h0a3.749,3.749,0,0,1,.729-1.48,3.011,3.011,0,0,1,1.757-.973,3.081,3.081,0,0,1,3.5,3.1v6.093a1.533,1.533,0,0,0,1.593,1.465h.034a1.533,1.533,0,0,0,1.593-1.465V42.387a6.2,6.2,0,0,0-.661-2.7A6.392,6.392,0,0,0,7.223,36.306Z" transform="translate(0 -28.82)" fill="#020a19"/>
    <path id="Path_2" data-name="Path 2" d="M77.069,37.278a6.212,6.212,0,0,0-1.123-.039,7.206,7.206,0,0,0-4.535,2.129,7.4,7.4,0,0,0-2.087,4.99A7.057,7.057,0,0,0,71,49.061a7.344,7.344,0,0,0,4.956,2.393,6.468,6.468,0,0,0,.917.044h.023A7.494,7.494,0,0,0,81.96,49.1a8.042,8.042,0,0,0,1.675-4.7A7.01,7.01,0,0,0,77.069,37.278Zm3.06,7.2a3.695,3.695,0,1,1-3.557-3.771A3.666,3.666,0,0,1,80.129,44.48Z" transform="translate(-9.77 -30.137)" fill="#020a19"/>
    <path id="Path_3" data-name="Path 3" d="M58.767,37.454a6.4,6.4,0,0,0-3.572,1.032,1.747,1.747,0,0,0-3.393.585V49.72a1.747,1.747,0,0,0,1.747,1.747c.049,0,.1,0,.145-.006s.092.006.139.006a1.471,1.471,0,0,0,1.494-1.448V44c.031-.12.078-.293.141-.5.021-.068.177-.576.3-.857a3.192,3.192,0,0,1,1.114-1.286,3.127,3.127,0,0,1,1.457-.514,3.069,3.069,0,0,1,1.114.129,3.24,3.24,0,0,1,2.442,3.043q.021,3.021.042,6.042a1.664,1.664,0,0,0,.514.986,1.682,1.682,0,0,0,1.175.429h.032a1.471,1.471,0,0,0,1.494-1.448v-6.38a6.7,6.7,0,0,0-.943-2.972A6.821,6.821,0,0,0,58.767,37.454Z" transform="translate(-7.293 -30.15)" fill="#020a19"/>
    <path id="Path_4" data-name="Path 4" d="M116.532,38.891a7.068,7.068,0,0,0-3.857-1.414,7.163,7.163,0,0,0-2.4.343,6.932,6.932,0,0,0-4.929,6.471,6.763,6.763,0,0,0,5.913,7.2,8.237,8.237,0,0,0,2.186.043,7.259,7.259,0,0,0,2.057-.514,6.985,6.985,0,0,0,2.494-1.8,1.82,1.82,0,0,0-.172-1.867,1.645,1.645,0,0,0-.907-.536,2.021,2.021,0,0,0-1.586.343,3.536,3.536,0,0,1-.814.643,3.637,3.637,0,0,1-1.8.471,4.078,4.078,0,0,1-4.1-2.7h10.189A7.045,7.045,0,0,0,116.532,38.891Zm-6.428,2.7a4.226,4.226,0,0,1,2.228-.728,3.549,3.549,0,0,1,2.057.643,3.494,3.494,0,0,1,1.012,1.114h-6.346A4.182,4.182,0,0,1,110.1,41.59Z" transform="translate(-14.834 -30.169)" fill="#020a19"/>
    <path id="Path_5" data-name="Path 5" d="M37.611,43.921l2.528-2.657-3.2-3.1a1.813,1.813,0,0,0-2.564,2.564Z" transform="translate(-4.734 -30.049)" fill="#020a19"/>
    <path id="Path_6" data-name="Path 6" d="M47.2,37.82a1.747,1.747,0,0,0-2.47.055L34.454,48.618a1.747,1.747,0,0,0,2.525,2.416l3.793-3.964,3.823,3.824a1.813,1.813,0,0,0,2.564-2.564l-3.88-3.881,3.979-4.159A1.747,1.747,0,0,0,47.2,37.82Z" transform="translate(-4.785 -30.151)" fill="#020a19"/>
    <path id="Path_7" data-name="Path 7" d="M99.78,28.777a1.7,1.7,0,0,0-1.714,1.692v6.867a6.8,6.8,0,0,0-3.43-1.233h0a6.165,6.165,0,0,0-1.127-.041,7.135,7.135,0,0,0-4.485,2.1,7.283,7.283,0,0,0-2.065,4.922,6.945,6.945,0,0,0,1.656,4.638,7.263,7.263,0,0,0,4.868,2.356,6.182,6.182,0,0,0,.92.047h.044v0a6.8,6.8,0,0,0,3.679-1.286,1.717,1.717,0,0,0,3.368-.444V30.469A1.7,1.7,0,0,0,99.78,28.777ZM97.826,43.209a3.751,3.751,0,1,1-3.608-3.864A3.744,3.744,0,0,1,97.826,43.209Z" transform="translate(-12.481 -28.777)" fill="#020a19"/>
    <path id="Path_8" data-name="Path 8" d="M27.675,38.934a7.068,7.068,0,0,0-3.857-1.414,7.163,7.163,0,0,0-2.4.343,6.932,6.932,0,0,0-4.929,6.471,6.763,6.763,0,0,0,5.913,7.2,8.238,8.238,0,0,0,2.186.043,7.259,7.259,0,0,0,2.057-.514,6.986,6.986,0,0,0,2.494-1.8,1.821,1.821,0,0,0-.172-1.867,1.646,1.646,0,0,0-.907-.536,2.021,2.021,0,0,0-1.586.343,3.537,3.537,0,0,1-.814.643,3.637,3.637,0,0,1-1.8.471,4.078,4.078,0,0,1-4.1-2.7H29.95A7.046,7.046,0,0,0,27.675,38.934Zm-6.428,2.7a4.226,4.226,0,0,1,2.228-.728,3.549,3.549,0,0,1,2.057.643,3.494,3.494,0,0,1,1.012,1.114H20.2A4.193,4.193,0,0,1,21.246,41.633Z" transform="translate(-2.11 -30.174)" fill="#020a19"/>
  </g>
</svg>
