<svg id="Group_2014" data-name="Group 2014" xmlns="http://www.w3.org/2000/svg" width="148" height="43" viewBox="0 0 148 43">
  <g id="Rectangle_1484" data-name="Rectangle 1484" fill="#fff" stroke="rgba(0,0,0,0.3)" stroke-width="0.3">
    <rect width="148" height="43" rx="4" stroke="none"/>
    <rect x="0.15" y="0.15" width="147.7" height="42.7" rx="3.85" fill="none"/>
  </g>
  <g id="samsung-knox" transform="translate(35.626 15.593)">
    <path id="Path_4155" data-name="Path 4155" d="M76.318,7.128,75.118,8.6v3.818H73.1V1.4h2.018V5.928L78.773,1.4h2.509L77.791,5.655l3.764,6.764H79.264Z" transform="translate(-33.279 -1.4)" fill="#020a19"/>
    <path id="Path_4156" data-name="Path 4156" d="M89.6,5.4h2.018V6.6a2.871,2.871,0,0,1,1.091-.873A3.485,3.485,0,0,1,94.237,5.4a3.329,3.329,0,0,1,2.564.982,3.928,3.928,0,0,1,.927,2.727v5.128H95.655V9.328a2.386,2.386,0,0,0-.491-1.582,1.848,1.848,0,0,0-1.473-.6,2.014,2.014,0,0,0-1.473.6,2.411,2.411,0,0,0-.6,1.746v4.746H89.6V5.4Z" transform="translate(-40.778 -3.218)" fill="#020a19"/>
    <path id="Path_4157" data-name="Path 4157" d="M110.782,12.328a2.214,2.214,0,0,0,1.036-.218,2.507,2.507,0,0,0,1.364-1.364,3.186,3.186,0,0,0,.218-.982,2.14,2.14,0,0,0-.218-.982,2.158,2.158,0,0,0-.545-.818,3.058,3.058,0,0,0-.818-.545,3.19,3.19,0,0,0-1.036-.218,2.214,2.214,0,0,0-1.036.218,2.158,2.158,0,0,0-.818.545,3.058,3.058,0,0,0-.545.818,3.186,3.186,0,0,0-.218.982,2.14,2.14,0,0,0,.218.982,2.158,2.158,0,0,0,.545.818,3.058,3.058,0,0,0,.818.545,2.214,2.214,0,0,0,1.036.218Zm0,1.909a4.8,4.8,0,0,1-1.8-.327,5.172,5.172,0,0,1-1.473-.927,3.69,3.69,0,0,1-.982-1.418,4.523,4.523,0,0,1-.327-1.746,4.725,4.725,0,0,1,.327-1.746,3.69,3.69,0,0,1,.982-1.418,4.514,4.514,0,0,1,1.473-.927,5.114,5.114,0,0,1,3.6,0,5.172,5.172,0,0,1,1.473.927,3.69,3.69,0,0,1,.982,1.418,4.542,4.542,0,0,1,.382,1.746,3.879,3.879,0,0,1-.382,1.746,3.69,3.69,0,0,1-.982,1.418,5.172,5.172,0,0,1-1.473.927,5.237,5.237,0,0,1-1.8.327Z" transform="translate(-48.323 -3.218)" fill="#020a19"/>
    <path id="Path_4158" data-name="Path 4158" d="M125.328,9.709,122.109,5.4h2.509l1.964,2.782L128.6,5.4H131l-3.164,4.364,3.382,4.473h-2.455l-2.182-2.946-2.127,2.946H122Z" transform="translate(-55.504 -3.218)" fill="#020a19"/>
    <path id="Path_4159" data-name="Path 4159" d="M52.209,10.791,52.155,6.7h1.255v5.128h-1.8L50.3,7.627h0l.055,4.2H49.1V6.7h1.909Z" transform="translate(-22.371 -3.809)" fill="#020a19"/>
    <path id="Path_4160" data-name="Path 4160" d="M10.527,7.191l-.709,4.691H8.4L9.382,6.7h2.291l.927,5.182H11.237Z" transform="translate(-3.872 -3.809)" fill="#020a19"/>
    <path id="Path_4161" data-name="Path 4161" d="M20.891,10.682,21.546,6.7h2.073l.109,5.182H22.473l-.055-4.637h0l-.873,4.637H20.237l-.873-4.637h0l-.055,4.637H18L18.109,6.7h2.127Z" transform="translate(-8.236 -3.809)" fill="#020a19"/>
    <path id="Path_4162" data-name="Path 4162" d="M2.5,10.273a.466.466,0,0,1,0,.382.448.448,0,0,1-.491.327c-.327,0-.545-.164-.545-.491V10H.1v.382c0,1.146.927,1.473,1.855,1.473s1.691-.327,1.8-1.2a4.3,4.3,0,0,0,0-.873C3.537,8.691,1.573,8.364,1.409,7.764V7.491c.055,0,.218-.218.491-.218a.458.458,0,0,1,.491.491v.327H3.7V7.709C3.7,6.564,2.718,6.4,1.955,6.4c-.927,0-1.691.327-1.8,1.146a1.557,1.557,0,0,0,0,.709C.373,9.291,2.227,9.618,2.5,10.273" transform="translate(-0.1 -3.673)" fill="#020a19"/>
    <path id="Path_4163" data-name="Path 4163" d="M33.246,10.318a.466.466,0,0,1,0,.382.448.448,0,0,1-.491.327c-.327,0-.491-.164-.491-.436V10.1H30.9v.382c0,1.146.873,1.473,1.855,1.473.927,0,1.691-.327,1.8-1.146a3.736,3.736,0,0,0,0-.818c-.218-1.091-2.127-1.364-2.291-1.964V7.755a.511.511,0,0,1,.982.109v.327H34.5V7.809c0-1.091-.982-1.309-1.746-1.309-.927,0-1.636.273-1.8,1.146a1.552,1.552,0,0,0,0,.709c.218.982,2.018,1.309,2.291,1.964" transform="translate(-14.099 -3.718)" fill="#020a19"/>
    <path id="Path_4164" data-name="Path 4164" d="M41.6,11.119c.382,0,.491-.218.491-.382V6.7H43.4v4.037c-.109.982-.873,1.255-1.8,1.255s-1.691-.327-1.8-1.255V6.7h1.309v4.037a.543.543,0,0,0,.491.382" transform="translate(-18.144 -3.809)" fill="#020a19"/>
    <path id="Path_4165" data-name="Path 4165" d="M61.3,10.928a.506.506,0,0,0,.546-.382V9.564H61.3V8.8h1.8v1.691c-.109.927-.927,1.255-1.8,1.255s-1.746-.327-1.8-1.255V7.655c.109-.982.873-1.255,1.8-1.255s1.691.327,1.8,1.255v.491H61.791V7.709a.507.507,0,0,0-.982,0v2.782a.48.48,0,0,0,.491.436" transform="translate(-27.098 -3.673)" fill="#020a19"/>
  </g>
</svg>
