<svg id="Group_2016" data-name="Group 2016" xmlns="http://www.w3.org/2000/svg" width="148" height="44" viewBox="0 0 148 44">
  <g id="Rectangle_1480" data-name="Rectangle 1480" fill="#fff" stroke="rgba(0,0,0,0.3)" stroke-width="0.3">
    <rect width="148" height="44" rx="4" stroke="none"/>
    <rect x="0.15" y="0.15" width="147.7" height="43.7" rx="3.85" fill="none"/>
  </g>
  <g id="Layer_2_1_" transform="translate(27.639 14.02)">
    <g id="Layer_1-2" transform="translate(0 0)">
      <path id="path6" d="M76.139,113.764V117c0,.374-.114.457-.478.4-2.4-.364-4.845-.686-7.268-1.029-.437-.062-.593-.218-.593-.686.042-1.716.021-3.442,0-5.178,0-.374.114-.5.5-.5,2.485.021,4.929.021,7.362.021.4,0,.5.156.5.51-.031,1.092-.021,2.152-.021,3.234Z" transform="translate(-60.75 -102.058)" fill="#00aaf2"/>
      <path id="path8" d="M72.2,40.957c-1.227,0-2.443-.021-3.67,0-.374,0-.53-.073-.53-.509.021-1.757.021-3.483,0-5.22,0-.343.114-.458.437-.509,2.506-.364,5.012-.707,7.507-1.092.437-.062.364.229.364.478,0,1.549.021,3.14,0,4.689,0,.572-.021,1.144,0,1.716.021.364-.114.458-.457.458-1.206-.031-2.433-.01-3.65-.01Z" transform="translate(-60.93 -33.618)" fill="#00aaf2"/>
      <path id="path10" d="M3.171,110.231H5.906c.291,0,.416.094.416.4v5.4c0,.312-.135.343-.416.312-1.82-.27-3.629-.53-5.438-.79-.354-.062-.468-.177-.468-.551.021-1.435.021-2.87,0-4.336,0-.364.094-.457.458-.457.925.031,1.8.031,2.714.031Z" transform="translate(0 -102.237)" fill="#00aaf2"/>
      <path id="path12" d="M3.351,52.014H.658C.314,52.014.2,51.9.2,51.536c.021-1.414.021-2.839,0-4.263,0-.343.094-.458.458-.509,1.82-.229,3.629-.5,5.438-.79.416-.062.458.073.458.416v5.168c0,.374-.156.437-.5.437-.9,0-1.82.021-2.7.021Z" transform="translate(-0.179 -44.675)" fill="#00aaf2"/>
      <path id="path14" d="M197.472,52.127c-.021-.291-.042-.665-.042-.946h-.021c-.062.25-.177.551-.27.842l-.374,1.05h-.218l-.343-1.029c-.094-.27-.177-.572-.25-.842-.021.25-.021.634-.042.957l-.062.925h-.25l.156-2.184h.364l.374,1.071a7.51,7.51,0,0,1,.218.749h.021c.062-.218.135-.478.229-.749l.4-1.071h.364l.135,2.184h-.312l-.073-.957Z" transform="translate(-175.262 -49.103)" fill="#00aaf2"/>
      <path id="path16" d="M221.174,51.077a.175.175,0,0,1-.177.177h-.021a.178.178,0,1,1,.2-.177Zm-.312,2.017V51.545h.291v1.549Z" transform="translate(-197.842 -49.103)" fill="#00aaf2"/>
      <path id="path18" d="M228.54,57.949a1.091,1.091,0,0,1-.458.094.745.745,0,0,1-.79-.8.791.791,0,0,1,.769-.842h.073a1.025,1.025,0,0,1,.4.073l-.062.218a.724.724,0,0,0-.343-.062.53.53,0,0,0-.551.593.536.536,0,0,0,.551.593.816.816,0,0,0,.343-.073l.073.208Z" transform="translate(-203.658 -54.031)" fill="#00aaf2"/>
      <path id="path20" d="M242.221,57.109c0-.177-.021-.343-.021-.478h.25l.021.312h.021a.465.465,0,0,1,.437-.343c.021,0,.062,0,.073.021v.25a.14.14,0,0,0-.094-.021.394.394,0,0,0-.374.374c0,.042-.021.073-.021.114V58.2h-.27l-.021-1.092Z" transform="translate(-217.017 -54.21)" fill="#00aaf2"/>
      <path id="path22" d="M253.018,57.221a.75.75,0,0,1-.707.8h-.062a.747.747,0,0,1-.749-.8.761.761,0,1,1,1.518,0Zm-1.237,0c0,.312.156.593.478.593s.478-.291.478-.593c0-.27-.114-.613-.478-.613C251.874,56.629,251.781,56.951,251.781,57.221Z" transform="translate(-225.35 -54.031)" fill="#00aaf2"/>
      <path id="path24" d="M268.562,57.72a.663.663,0,0,0,.374.114c.2,0,.291-.094.291-.229,0-.114-.073-.2-.291-.291-.27-.094-.416-.25-.416-.457a.476.476,0,0,1,.53-.458,1.047,1.047,0,0,1,.4.094l-.062.2a.6.6,0,0,0-.312-.094.211.211,0,0,0-.25.218c0,.114.094.177.291.25.25.094.416.229.416.478,0,.27-.218.478-.593.478a.944.944,0,0,1-.437-.114l.062-.187Z" transform="translate(-240.582 -54.031)" fill="#00aaf2"/>
      <path id="path26" d="M282.318,57.221a.75.75,0,0,1-.707.8h-.062a.747.747,0,0,1-.749-.8.761.761,0,1,1,1.518,0Zm-1.227,0c0,.312.156.593.478.593s.478-.291.478-.593c0-.27-.114-.613-.478-.613S281.091,56.951,281.091,57.221Z" transform="translate(-251.603 -54.031)" fill="#00aaf2"/>
      <path id="path28" d="M297.218,51.66V50.3H297V50.08h.218v-.073a.723.723,0,0,1,.177-.551.535.535,0,0,1,.374-.156.885.885,0,0,1,.229.042l-.042.218a.547.547,0,0,0-.177-.042c-.229,0-.291.218-.291.457v.094h.374v.218h-.374v1.341l-.27.031Z" transform="translate(-266.119 -47.669)" fill="#00aaf2"/>
      <path id="path30" d="M307.389,52.4v.458h.416v.218h-.416v.842c0,.2.062.291.218.291a.355.355,0,0,0,.156-.021l.021.218a.488.488,0,0,1-.25.042.5.5,0,0,1-.312-.114.635.635,0,0,1-.094-.416v-.863H306.9v-.218h.229v-.374Z" transform="translate(-274.989 -50.447)" fill="#00aaf2"/>
      <path id="path32" d="M196.936,85.633l-.749,2.308H195.2l2.506-7.341h1.123l2.506,7.33h-1.009l-.79-2.308-2.6.01Zm2.4-.728-.707-2.111c-.156-.478-.27-.925-.374-1.341h-.042a12.489,12.489,0,0,1-.364,1.321l-.707,2.121h2.194Z" transform="translate(-174.904 -75.715)" fill="#00aaf2"/>
      <path id="path34" d="M263.238,104.968a3.611,3.611,0,0,1-1.518.312,2.516,2.516,0,0,1-2.62-2.683,2.7,2.7,0,0,1,2.818-2.8,3.038,3.038,0,0,1,1.32.27l-.218.728a2.434,2.434,0,0,0-1.123-.25,1.82,1.82,0,0,0-1.851,1.986,1.8,1.8,0,0,0,1.83,1.965,2.669,2.669,0,0,0,1.164-.25l.2.717Z" transform="translate(-232.159 -92.919)" fill="#00aaf2"/>
      <path id="path36" d="M306.878,86.2v1.518h1.362v.707h-1.362v2.839c0,.655.177,1.029.707,1.029a2.488,2.488,0,0,0,.551-.062l.042.707a2.011,2.011,0,0,1-.863.135,1.363,1.363,0,0,1-1.029-.4,2.135,2.135,0,0,1-.364-1.383v-2.87H305.1v-.707h.8V86.429l.977-.229Z" transform="translate(-273.376 -80.733)" fill="#00aaf2"/>
      <path id="path38" d="M345.854,81.635a.584.584,0,0,1-.551.593h-.042a.549.549,0,0,1-.572-.53v-.042a.558.558,0,0,1,.551-.593h.042a.529.529,0,0,1,.572.572Zm-1.05,6.727V83.1h.946v5.24H344.8Z" transform="translate(-308.848 -76.126)" fill="#00aaf2"/>
      <path id="path40" d="M365.2,100.7l1.029,2.963c.177.478.312.925.437,1.362h.042c.114-.437.27-.884.437-1.362l1.029-2.963h1.009l-2.069,5.24h-.925L364.2,100.7Z" transform="translate(-326.331 -93.725)" fill="#00aaf2"/>
      <path id="path42" d="M416.525,102.511a1.681,1.681,0,0,0,1.8,1.83,3.308,3.308,0,0,0,1.456-.27l.156.686a4.208,4.208,0,0,1-1.757.343,2.457,2.457,0,0,1-2.579-2.662,2.551,2.551,0,0,1,2.485-2.839,2.21,2.21,0,0,1,2.163,2.464,3.569,3.569,0,0,1-.042.458h-3.681Zm2.8-.686A1.341,1.341,0,0,0,418,100.3a1.6,1.6,0,0,0-1.477,1.528Z" transform="translate(-372.387 -92.739)" fill="#00aaf2"/>
      <path id="path44" d="M493.921,80.456a14.542,14.542,0,0,1,2.028-.156,4.1,4.1,0,0,1,2.963.925,3.362,3.362,0,0,1,1.029,2.62,3.842,3.842,0,0,1-1.071,2.849,4.514,4.514,0,0,1-3.234,1.071,13.884,13.884,0,0,1-1.736-.094Zm.967,6.488a7.233,7.233,0,0,0,.946.062,2.829,2.829,0,0,0,3.14-3.119c.021-1.736-.957-2.818-2.963-2.818a8.182,8.182,0,0,0-1.123.094Z" transform="translate(-442.545 -75.446)" fill="#00aaf2"/>
      <path id="path46" d="M564.054,81.635a.584.584,0,0,1-.551.593h-.042a.549.549,0,0,1-.572-.53v-.042a.558.558,0,0,1,.551-.593h.042a.539.539,0,0,1,.572.572Zm-1.081,6.727V83.1h.946v5.24h-.946Z" transform="translate(-504.36 -76.126)" fill="#00aaf2"/>
      <path id="path48" d="M587.741,101.357c0-.613-.021-1.144-.042-1.643h.842l.042,1.029h.042A1.609,1.609,0,0,1,590.1,99.6a.934.934,0,0,1,.25.021v.9a1.417,1.417,0,0,0-.312-.042,1.331,1.331,0,0,0-1.279,1.227,1.52,1.52,0,0,0-.042.437v2.818h-.946l-.031-3.608Z" transform="translate(-526.592 -92.739)" fill="#00aaf2"/>
      <path id="path50" d="M618.425,102.511a1.681,1.681,0,0,0,1.8,1.83,3.309,3.309,0,0,0,1.456-.27l.156.686a4.208,4.208,0,0,1-1.757.343,2.457,2.457,0,0,1-2.579-2.662,2.551,2.551,0,0,1,2.485-2.839,2.21,2.21,0,0,1,2.163,2.464,3.558,3.558,0,0,1-.042.458h-3.681v-.01Zm2.8-.686A1.341,1.341,0,0,0,619.9,100.3a1.6,1.6,0,0,0-1.477,1.528Z" transform="translate(-553.294 -92.739)" fill="#00aaf2"/>
      <path id="path52" d="M673.938,104.968a3.61,3.61,0,0,1-1.518.312,2.516,2.516,0,0,1-2.62-2.683,2.7,2.7,0,0,1,2.818-2.8,3.037,3.037,0,0,1,1.32.27l-.218.728a2.434,2.434,0,0,0-1.123-.25,1.82,1.82,0,0,0-1.851,1.986,1.8,1.8,0,0,0,1.83,1.965,2.669,2.669,0,0,0,1.164-.25l.2.717Z" transform="translate(-600.156 -92.919)" fill="#00aaf2"/>
      <path id="path54" d="M717.757,86.2v1.518h1.362v.707h-1.362v2.839c0,.655.177,1.029.707,1.029a2.49,2.49,0,0,0,.551-.062l.042.707a2.012,2.012,0,0,1-.863.135,1.363,1.363,0,0,1-1.029-.4,2.134,2.134,0,0,1-.364-1.383v-2.87H716v-.707h.8V86.429Z" transform="translate(-641.552 -80.733)" fill="#00aaf2"/>
      <path id="path56" d="M757.247,102.434a2.583,2.583,0,0,1-2.641,2.755,2.513,2.513,0,0,1-2.506-2.735,2.57,2.57,0,0,1,2.62-2.755A2.478,2.478,0,0,1,757.247,102.434Zm-4.17.01c0,1.071.53,2.007,1.591,2.007s1.612-.946,1.612-2.028c0-.925-.437-2.048-1.612-2.048S753.077,101.509,753.077,102.444Z" transform="translate(-673.898 -92.828)" fill="#00aaf2"/>
      <path id="path58" d="M812.741,101.357c0-.613-.021-1.144-.042-1.643h.842l.042,1.029h.042A1.609,1.609,0,0,1,815.1,99.6a.933.933,0,0,1,.25.021v.9a1.415,1.415,0,0,0-.312-.042,1.331,1.331,0,0,0-1.279,1.227,1.511,1.511,0,0,0-.042.437v2.818h-.946l-.031-3.608Z" transform="translate(-728.197 -92.739)" fill="#00aaf2"/>
      <path id="path60" d="M844.519,100.7l1.144,3.1c.114.343.25.749.343,1.092h.021c.094-.312.2-.707.343-1.092l1.05-3.1h1.009l-1.435,3.743a8.163,8.163,0,0,1-1.8,3.306,2.926,2.926,0,0,1-1.165.613l-.229-.8a2.136,2.136,0,0,0,.842-.478,2.881,2.881,0,0,0,.79-1.071.491.491,0,0,0,.073-.229.637.637,0,0,0-.073-.25L843.5,100.71l1.019-.01Z" transform="translate(-755.795 -93.725)" fill="#00aaf2"/>
    </g>
  </g>
</svg>
