<svg id="Group_2010" data-name="Group 2010" xmlns="http://www.w3.org/2000/svg" width="148" height="45" viewBox="0 0 148 45">
  <g id="Rectangle_1485" data-name="Rectangle 1485" fill="#fff" stroke="rgba(0,0,0,0.3)" stroke-width="0.3">
    <rect width="148" height="45" rx="4" stroke="none"/>
    <rect x="0.15" y="0.15" width="147.7" height="44.7" rx="3.85" fill="none"/>
  </g>
  <g id="zendesk" transform="translate(35.32 14.926)">
    <path id="Path_4166" data-name="Path 4166" d="M188.316,25.493A3.7,3.7,0,0,0,191,24.445l1.317,1.439a5.218,5.218,0,0,1-3.975,1.561c-3.243,0-5.34-2.146-5.34-5.072a4.972,4.972,0,0,1,5.048-5.072c3.219,0,5.048,2.438,4.877,5.852h-7.608a2.764,2.764,0,0,0,3,2.341m2.316-3.926a2.434,2.434,0,0,0-2.56-2.292,2.621,2.621,0,0,0-2.755,2.292Z" transform="translate(-138.376 -13.081)" fill="#03363d"/>
    <path id="Path_4167" data-name="Path 4167" d="M0,26.3l5.852-5.95H.146V18.5H8.559v1.9l-5.852,5.95h5.95v1.853H0Z" transform="translate(0 -13.989)" fill="#03363d"/>
    <path id="Path_4168" data-name="Path 4168" d="M45.916,25.493A3.7,3.7,0,0,0,48.6,24.445l1.317,1.439a5.218,5.218,0,0,1-3.975,1.561c-3.243,0-5.34-2.146-5.34-5.072A4.972,4.972,0,0,1,45.648,17.3c3.219,0,5.048,2.438,4.877,5.852H42.917a2.749,2.749,0,0,0,3,2.341m2.317-3.926a2.434,2.434,0,0,0-2.56-2.292,2.621,2.621,0,0,0-2.755,2.292Z" transform="translate(-30.7 -13.081)" fill="#03363d"/>
    <path id="Path_4169" data-name="Path 4169" d="M133.2,9.339a4.84,4.84,0,0,1,4.877-5.048,4.2,4.2,0,0,1,3.243,1.463V0h2.073V14.192H141.32V12.851a4.158,4.158,0,0,1-3.268,1.536A4.894,4.894,0,0,1,133.2,9.339m8.218-.024a3.073,3.073,0,1,0-6.145,0,3.074,3.074,0,1,0,6.145,0" transform="translate(-100.719)" fill="#03363d"/>
    <path id="Path_4170" data-name="Path 4170" d="M229.3,25.275l1.878-.975a2.776,2.776,0,0,0,2.487,1.414c1.17,0,1.78-.61,1.78-1.292,0-.78-1.122-.951-2.365-1.195-1.658-.341-3.365-.9-3.365-2.9,0-1.536,1.463-2.951,3.755-2.926a4.5,4.5,0,0,1,3.926,1.878l-1.731.951a2.513,2.513,0,0,0-2.195-1.1c-1.122,0-1.683.536-1.683,1.17,0,.707.9.9,2.292,1.195,1.609.341,3.414.878,3.414,2.9,0,1.341-1.17,3.146-3.95,3.121a4.482,4.482,0,0,1-4.243-2.243" transform="translate(-173.386 -13.156)" fill="#03363d"/>
    <path id="Path_4171" data-name="Path 4171" d="M274.506,9.876l-1.634,1.78v2.536H270.8V0h2.073V9.291l4.389-4.828h2.512l-3.8,4.17,3.9,5.56H277.53Z" transform="translate(-204.766)" fill="#03363d"/>
    <path id="Path_4172" data-name="Path 4172" d="M93.511,17.5A4.222,4.222,0,0,0,89,21.743v5.682h2.1V22.011a2.308,2.308,0,0,1,2.487-2.536c1.561,0,2.341.951,2.341,2.536v5.413h2.1V21.743A4.2,4.2,0,0,0,93.511,17.5" transform="translate(-67.298 -13.233)" fill="#03363d"/>
    <path id="Path_4173" data-name="Path 4173" d="M304.519,12.519a.759.759,0,1,1,0,1.073.765.765,0,0,1,0-1.073Zm.927.927a.569.569,0,0,0-.829-.78.574.574,0,0,0,0,.8.63.63,0,0,0,.829-.024Zm-.341-.878.219.219a.287.287,0,0,1,.049.415.259.259,0,0,1-.293.049l-.073.293-.146-.146.122-.39.073.073a.12.12,0,0,0,.171.024l.024-.024a.121.121,0,0,0-.024-.171h0l-.073-.1-.415.415-.122-.122Z" transform="translate(-230.097 -9.301)" fill="#03363d"/>
  </g>
</svg>
